inDegrees=no
num_controls=7
num_derivatives=13
num_iterations=144
num_multipliers=7
num_parameters=0
num_slacks=7
num_states=26
objective=0.496472
objective_accelerations=0.043671
objective_balance=0.003660
objective_effort=0.040042
objective_height=0.403595
objective_ligament=0.005504
solver_duration=1663.816554
status=Solve_Succeeded
success=true
DataType=double
version=3
OpenSimVersion=4.5
endheader
time	/jointset/ground_pelvis/pelvis_tilt/value	/jointset/ground_pelvis/pelvis_tx/value	/jointset/ground_pelvis/pelvis_ty/value	/jointset/hip_r/hip_flexion_r/value	/jointset/hip_r/hip_adduction_r/value	/jointset/hip_r/hip_rotation_r/value	/jointset/back/lumbar_extension/value	/jointset/patellofemoral_r/patellar_flexion_r/value	/jointset/knee_r/knee_flexion_r/value	/jointset/knee_r/knee_adduction_r/value	/jointset/knee_r/knee_rotation_r/value	/jointset/ankle_r/ankle_angle_r/value	/jointset/subtalar_r/subtalar_angle_r/value	/jointset/ground_pelvis/pelvis_tilt/speed	/jointset/ground_pelvis/pelvis_tx/speed	/jointset/ground_pelvis/pelvis_ty/speed	/jointset/hip_r/hip_flexion_r/speed	/jointset/hip_r/hip_adduction_r/speed	/jointset/hip_r/hip_rotation_r/speed	/jointset/back/lumbar_extension/speed	/jointset/patellofemoral_r/patellar_flexion_r/speed	/jointset/knee_r/knee_flexion_r/speed	/jointset/knee_r/knee_adduction_r/speed	/jointset/knee_r/knee_rotation_r/speed	/jointset/ankle_r/ankle_angle_r/speed	/jointset/subtalar_r/subtalar_angle_r/speed	/forceset/tau_hip_flexion_r	/forceset/tau_hip_adduction_r	/forceset/tau_hip_rotation_r	/forceset/tau_knee_flexion_r	/forceset/tau_ankle_angle_r	/forceset/tau_subtalar_angle_r	/forceset/tau_lumbar_extension	lambda_cid13_p0	lambda_cid14_p0	lambda_cid14_p1	lambda_cid14_p2	lambda_cid14_p3	lambda_cid14_p4	lambda_cid14_p5	/jointset/ground_pelvis/pelvis_tilt/accel	/jointset/ground_pelvis/pelvis_tx/accel	/jointset/ground_pelvis/pelvis_ty/accel	/jointset/hip_r/hip_flexion_r/accel	/jointset/hip_r/hip_adduction_r/accel	/jointset/hip_r/hip_rotation_r/accel	/jointset/back/lumbar_extension/accel	/jointset/patellofemoral_r/patellar_flexion_r/accel	/jointset/knee_r/knee_flexion_r/accel	/jointset/knee_r/knee_adduction_r/accel	/jointset/knee_r/knee_rotation_r/accel	/jointset/ankle_r/ankle_angle_r/accel	/jointset/subtalar_r/subtalar_angle_r/accel	gamma_cid13_p0	gamma_cid14_p0	gamma_cid14_p1	gamma_cid14_p2	gamma_cid14_p3	gamma_cid14_p4	gamma_cid14_p5
0	-0.006515417884478866	0.09626031441690724	0.9427240669234033	0.1762555222360518	-0.2321527621990585	-0.2616405923047373	-0.038598046466844	0.07317863873450971	0.07317863873451017	0.1745328910868849	0.1745328664638347	0.03247278518263602	-0.00345205482545321	0	0	0	0	0	0	0	0	0	0	0	0	0	0.238297347775375	-0.1808613247865416	-0.04839250596515304	-0.4342125251942075	0.4441645134286233	-0.1423794809544989	-0.1303391725362048	-39.07636874527339	93.09418073000202	-35.79795802386841	-4.955235577409717	-45.16424610332518	-679.1134720587311	66.82292167583252	-2.058212547072187	-0.927830593874401	-0.607320654453063	9.018554604936858	0.2438433289914666	2.551718954745003	-4.936425798241845	9.615951460164775	9.615951460166146	-3.08409710634985	0.1770832231949223	3.557256000896464	1.058956762206479	1.095991534625872e-07	5.206204041136422e-08	-7.493753421861357e-07	2.473055488565981e-07	5.019616955965949e-08	-1.849861890406168e-08	-4.11793551745334e-07
0.01	-0.006610950787080663	0.0962136980697488	0.9426948905361442	0.1766922644966263	-0.2321392720291271	-0.26150485005829	-0.03884782774423255	0.07364603360401577	0.07364603360401624	0.174378707835927	0.1745297004271722	0.03264551941529972	-0.003399021701342654	-0.01896412274962529	-0.00937612915043686	-0.005824357286986321	0.08701289931720077	0.002643072577821335	0.02700444815125741	-0.04965079093198462	0.0930870985972707	0.09308709859727346	-0.03060362175448552	-0.0006119885469857891	0.03427281874721869	0.01048691511475026	0.2285399866391202	-0.1869703568948136	-0.0455371737617017	-0.4178276755112583	0.4169593863013872	-0.1275303684224521	-0.1231047655230337	-39.09184472232683	84.88179298956771	-30.84059731965993	-5.684260534029049	-39.29623814645747	-679.2086604293114	75.44247378965041	-1.794136343117054	-0.9504229941896915	-0.5683589408202901	8.492330783907782	0.2662263502055234	2.753266254740232	-4.933586058832551	9.096285844066342	9.09628584406585	-3.013629550953053	-0.17708749622524	3.321208332323146	1.025513103455608	1.501704549898741e-07	6.471393929401866e-08	-1.008276813322686e-06	2.423284896991247e-07	7.713716051554667e-08	-1.721194174928449e-07	-4.722524642898714e-07
0.02	-0.006891849758020321	0.09607173664737374	0.9426077974410154	0.1779890703881322	-0.2321010137078117	-0.261103371628445	-0.03958495299457204	0.07503253881640702	0.07503253881640636	0.1739254613992305	0.1745210649845382	0.03315276453957335	-0.003244728582615332	-0.03707321366762538	-0.0190690150433248	-0.01158334157392939	0.1720127261862456	0.004953630276765071	0.0531472366794798	-0.0974687945902014	0.1838220685768663	0.1838220685768631	-0.059812637147177	-0.00109388119716788	0.06690217832198041	0.02025199892335284	0.2187826255028647	-0.1930793890030859	-0.04268184155825856	-0.4014428258283087	0.3897542591741506	-0.1126812558904057	-0.1158703585098626	-39.13769726248158	76.75559125591472	-25.89094357077476	-6.386015143271543	-33.61365341716772	-677.9855076234068	83.81136695276622	-1.887206180747155	-0.9911819423646112	-0.5942460544444135	8.615940115305676	0.1773403532159457	2.37938703013801	-4.56986834348828	9.145525736629757	9.145525736629384	-2.80517583399104	0.203102402555652	3.228564166405077	0.9145905009769413	1.90741756517161e-07	7.73658381766731e-08	-1.267178284459236e-06	2.373514305416513e-07	1.040781514714338e-07	-3.257402160816281e-07	-5.327113768344086e-07
0.03	-0.007350469915523902	0.09583207432835657	0.9424631897918919	0.1801259894357141	-0.232041302586912	-0.2604467135204067	-0.04079051974145455	0.07731525675334584	0.07731525675334584	0.1731873296159324	0.1745100047737994	0.03397916115907899	-0.002996080861560163	-0.05455466684227089	-0.02883341603405719	-0.01734394506681215	0.2549808561657976	0.006948260809147543	0.07803545772325859	-0.1433269119865822	0.2723149302420068	0.2723149302420049	-0.08758385558105261	-0.001125686308237185	0.09819758704049408	0.02939771452122985	0.2120592251450586	-0.1902203042936341	-0.04086340739865248	-0.3929577090033646	0.3771083048499907	-0.1094912213994948	-0.1106175456790709	-39.21280155925548	72.86075262606161	-25.23910189474617	-6.430960887895491	-31.19292784950998	-677.3404521041006	83.94964689068841	-1.664172928256341	-0.9645433440201513	-0.567896787849303	8.078727727939562	0.2043288267241684	2.521269744723834	-4.546137017769202	8.640139783834416	8.640139783834849	-2.728790171074105	-0.1073619598190187	3.053133358553383	0.9024139690310301	2.1100146425505e-07	8.086462260830122e-08	-1.391982483492399e-06	2.501908637106442e-07	1.217005816561915e-07	-4.409067901604641e-07	-5.838320339031403e-07
0.04	-0.007981016213260337	0.09549567316611357	0.9422607902496116	0.1830808854408238	-0.2319628842759936	-0.2595456271812852	-0.04244513837831206	0.08047069798741259	0.08047069798741244	0.1721783465836965	0.174498418513573	0.03511313269256557	-0.002658405608558634	-0.07145844171424069	-0.03841678368849032	-0.02314172020526152	0.3356081176917336	0.008695068280520945	0.1020328828960782	-0.1872791725852129	0.3583667280022764	0.3583667280022778	-0.1139828869344595	-0.001199091094538101	0.1284171611181626	0.03805750531262481	0.2053358247872534	-0.1873612195841825	-0.03904497323905372	-0.3844725921784192	0.3644623505258309	-0.1063011869085842	-0.1053647328482783	-39.31552292383699	69.04440365064593	-24.59309349548241	-6.452614199494251	-28.94090185935938	-675.495672251016	83.85850537441559	-1.771670520212019	-0.9549752751047506	-0.6016803835577373	8.147766424582461	0.1277757410141305	2.201227855946163	-4.188696983938281	8.657312955655579	8.657312955655605	-2.530738417897295	0.1947824675093366	3.013397238236049	0.8174055396805299	2.308423762447041e-07	8.417468303062982e-08	-1.514021790317245e-06	2.633976472368839e-07	1.391308765673177e-07	-5.552804936308477e-07	-6.347601496218554e-07
0.05	-0.00877825124234591	0.09506445914244038	0.9419999932122933	0.1868312136067682	-0.231868247890768	-0.258410985601082	-0.04452933519019204	0.08447551119535505	0.08447551119535529	0.1709123517717202	0.1744878438478729	0.0365443500086811	-0.002236428668598009	-0.087896350355306	-0.0477816732184958	-0.02903799410995511	0.4140598460992052	0.01019806057775121	0.124741226971498	-0.2292507170067001	0.442195283981843	0.4421952839818452	-0.1389842426802889	-0.0009382428387922516	0.1576657725007237	0.04627063268690714	0.1987138585493809	-0.1798417951071169	-0.03726544508140398	-0.3775125586977085	0.3547615929095164	-0.1073781709613688	-0.1001588504223189	-39.44402426461084	65.98906364988896	-25.66583387647815	-6.201590116563342	-27.17691037192421	-674.0826795977019	80.28950119575602	-1.56599166323316	-0.9205656507585116	-0.5867589019879171	7.634241660913294	0.1562676044479181	2.282586115732967	-4.154962253655229	8.185486149632704	8.185486149632803	-2.45026874771778	-0.06152271216688435	2.85656012463137	0.8129695825292046	2.267940078246774e-07	7.834519354949918e-08	-1.472659899870667e-06	2.635435774867676e-07	1.433027397302825e-07	-6.265251938696355e-07	-6.340547846844173e-07
